<?xml version="1.0" encoding="iso-8859-1"?>
<!-- Generator: Adobe Illustrator 16.0.0, SVG Export Plug-In . SVG Version: 6.00 Build 0)  -->
<!DOCTYPE svg PUBLIC "-//W3C//DTD SVG 1.1//EN" "http://www.w3.org/Graphics/SVG/1.1/DTD/svg11.dtd">
<svg version="1.1" id="Capa_1" xmlns="http://www.w3.org/2000/svg" xmlns:xlink="http://www.w3.org/1999/xlink" x="0px" y="0px"
	 width="48.188px" height="48.188px" viewBox="0 0 48.188 48.188" style="enable-background:new 0 0 48.188 48.188;"
	 xml:space="preserve">
<g>
	<g>
		<path d="M40.438,21.094c0-3.825-2.271-6.938-5.062-6.938s-5.062,3.112-5.062,6.938c0,2.524,0.985,4.816,2.557,6.036l-2.424,2.625
			c-0.086,0.092-0.133,0.213-0.133,0.34v3.438c0,0.274,0.223,0.5,0.5,0.5h9.125c0.272,0,0.5-0.226,0.5-0.5v-3.5
			c0-0.127-0.052-0.25-0.138-0.342l-2.408-2.572C39.455,25.897,40.438,23.61,40.438,21.094z M36.768,27.377l2.671,2.854v2.803
			h-8.125v-2.74l2.688-2.908c0.102-0.108,0.148-0.264,0.127-0.412c-0.022-0.149-0.113-0.28-0.244-0.356
			c-1.562-0.912-2.569-3.079-2.569-5.518c0-3.274,1.821-5.938,4.063-5.938c2.238,0,4.062,2.664,4.062,5.938
			c0,2.431-1.006,4.594-2.561,5.51c-0.134,0.077-0.222,0.209-0.242,0.358C36.617,27.115,36.664,27.266,36.768,27.377z"/>
		<path d="M23.064,14.157H8.25c-0.276,0-0.5,0.225-0.5,0.5c0,0.276,0.224,0.5,0.5,0.5h14.812c0.276,0,0.5-0.224,0.5-0.5
			S23.339,14.157,23.064,14.157z"/>
		<path d="M23.064,17.157H8.25c-0.276,0-0.5,0.225-0.5,0.5c0,0.276,0.224,0.5,0.5,0.5h14.812c0.276,0,0.5-0.224,0.5-0.5
			S23.339,17.157,23.064,17.157z"/>
		<path d="M23.064,20.157H8.25c-0.276,0-0.5,0.225-0.5,0.5c0,0.276,0.224,0.5,0.5,0.5h14.812c0.276,0,0.5-0.224,0.5-0.5
			S23.339,20.157,23.064,20.157z"/>
		<path d="M23.064,23.157H8.25c-0.276,0-0.5,0.225-0.5,0.5c0,0.276,0.224,0.5,0.5,0.5h14.812c0.276,0,0.5-0.224,0.5-0.5
			S23.339,23.157,23.064,23.157z"/>
		<path d="M23.064,26.157H8.25c-0.276,0-0.5,0.225-0.5,0.5s0.224,0.5,0.5,0.5h14.812c0.276,0,0.5-0.225,0.5-0.5
			S23.339,26.157,23.064,26.157z"/>
		<path d="M23.064,29.157H8.25c-0.276,0-0.5,0.225-0.5,0.5s0.224,0.5,0.5,0.5h14.812c0.276,0,0.5-0.225,0.5-0.5
			S23.339,29.157,23.064,29.157z"/>
		<path d="M23.064,32.157H8.25c-0.276,0-0.5,0.225-0.5,0.5s0.224,0.5,0.5,0.5h14.812c0.276,0,0.5-0.225,0.5-0.5
			S23.339,32.157,23.064,32.157z"/>
		<path d="M45.688,8.157H2.5c-1.378,0-2.5,1.122-2.5,2.5v26.875c0,1.379,1.122,2.5,2.5,2.5h43.188c1.379,0,2.5-1.121,2.5-2.5V10.657
			C48.188,9.279,47.067,8.157,45.688,8.157z M47.188,37.532c0,0.828-0.673,1.5-1.5,1.5H2.5c-0.827,0-1.5-0.672-1.5-1.5V10.657
			c0-0.827,0.673-1.5,1.5-1.5h43.188c0.827,0,1.5,0.673,1.5,1.5V37.532z"/>
	</g>
</g>
<g>
</g>
<g>
</g>
<g>
</g>
<g>
</g>
<g>
</g>
<g>
</g>
<g>
</g>
<g>
</g>
<g>
</g>
<g>
</g>
<g>
</g>
<g>
</g>
<g>
</g>
<g>
</g>
<g>
</g>
</svg>
