<?xml version="1.0" encoding="iso-8859-1"?>
<!-- Generator: Adobe Illustrator 16.0.0, SVG Export Plug-In . SVG Version: 6.00 Build 0)  -->
<!DOCTYPE svg PUBLIC "-//W3C//DTD SVG 1.1//EN" "http://www.w3.org/Graphics/SVG/1.1/DTD/svg11.dtd">
<svg version="1.1" id="Capa_1" xmlns="http://www.w3.org/2000/svg" xmlns:xlink="http://www.w3.org/1999/xlink" x="0px" y="0px"
	 width="206.076px" height="206.075px" viewBox="0 0 206.076 206.075" style="enable-background:new 0 0 206.076 206.075;"
	 xml:space="preserve">
<g>
	<g>
		<path d="M134.778,133.23c0.255-10.583,21.099-24.046,20.982-53.444c-0.061-14.785-14.4-39.357-38.751-42.426
			c-24.348-3.066-42.566,2.295-50.534,17.305c-7.964,15.007-8.573,28.184-7.958,30.625c0.618,2.457,3.218,7.048,3.218,7.048
			s-12.257,18.837-11.49,21.894c0.764,3.069,9.183,4.726,9.183,4.726s0.749,2.125-0.786,6.26c-1.519,4.128,2.856,8.938,4.159,10.606
			c1.315,1.681-1.833,6.894-0.761,9.804c1.075,2.91,6.125,6.437,11.947,5.676c5.824-0.768,13.295-2.145,15.896-2.606
			c5.854,13.786-8.27,20.837-8.27,20.837h74.27C155.876,169.546,134.327,152.229,134.778,133.23z M108.959,66.579
			c0-5.928,4.822-10.756,10.753-10.756c5.943,0,10.766,4.829,10.766,10.756v3.657h-3.988v-3.657c0-3.727-3.038-6.765-6.777-6.765
			c-3.727,0-6.759,3.039-6.759,6.765v3.657h-3.994V66.579z M134.662,93.155c0,1.096-0.889,1.994-1.979,1.994h-25.91
			c-1.104,0-2.003-0.898-2.003-1.994V73.219c0-1.09,0.904-1.988,2.003-1.988h25.91c1.096,0,1.979,0.898,1.979,1.988V93.155z"/>
		<path d="M103.038,0C46.223,0,0,46.223,0,103.04c0,56.812,46.223,103.035,103.038,103.035c56.814,0,103.038-46.223,103.038-103.035
			C206.076,46.223,159.852,0,103.038,0z M103.038,193.604c-49.943,0-90.567-40.633-90.567-90.564
			c0-49.939,40.624-90.569,90.567-90.569c49.946,0,90.567,40.624,90.567,90.569C193.605,152.983,152.984,193.604,103.038,193.604z"
			/>
	</g>
</g>
<g>
</g>
<g>
</g>
<g>
</g>
<g>
</g>
<g>
</g>
<g>
</g>
<g>
</g>
<g>
</g>
<g>
</g>
<g>
</g>
<g>
</g>
<g>
</g>
<g>
</g>
<g>
</g>
<g>
</g>
</svg>
