<?xml version="1.0" encoding="iso-8859-1"?>
<!-- Generator: Adobe Illustrator 19.0.0, SVG Export Plug-In . SVG Version: 6.00 Build 0)  -->
<svg version="1.1" id="Layer_1" xmlns="http://www.w3.org/2000/svg" xmlns:xlink="http://www.w3.org/1999/xlink" x="0px" y="0px"
	 viewBox="0 0 512 512" style="enable-background:new 0 0 512 512;" xml:space="preserve">
<g>
	<g>
		<path d="M310,105.037c0,0-45.527-0.203-76.206,0c-16.733,0-29.986-1.658-45.466,9.5h20.518c13.551,0,24.575,11.024,24.575,24.575
			v52.426l11.712-4.029c2.888-0.995,5.843-1.532,8.78-1.665l4.665-5.922c-8.932-9.552-11.09-23.902-5.033-35.706
			c8.611-16.785,29.691-22.058,45.128-11.928l2.707,1.777C300.846,123.595,303.87,113.454,310,105.037z"/>
	</g>
</g>
<g>
	<g>
		<path d="M267.037,0c-25.018,0-45.299,20.281-45.299,45.299c0,25.164,20.463,45.299,45.299,45.299
			c24.979,0,45.299-20.249,45.299-45.299C312.336,20.281,292.054,0,267.037,0z"/>
	</g>
</g>
<g>
	<g>
		<path d="M276.297,218.7l-10.313-11.27c-3.879-4.237-9.9-5.773-15.336-3.902l-17.226,5.926v17.995
			c0,5.223-1.649,10.059-4.437,14.044l22.104-7.605l13.773,15.05C263.713,237.945,267.317,226.898,276.297,218.7z"/>
	</g>
</g>
<g>
	<g>
		<path d="M400.174,203.842c-0.484-1.21-8.957-21.557-18.495-42.799c-18.088,21.518-50.954,21.608-69.281,0.513l-23.018-15.104
			c-6.662-4.37-15.609-2.515-19.977,4.146c-4.372,6.661-2.515,15.605,4.145,19.976l28.776,18.884l-22.629,26.467
			c3.611-2.635,7.891-4.877,12.878-6.593c6.556-2.256,58.794-8.692,58.794-8.692l0.001-0.002c0,0,0.001,0.001,0.001,0.002
			l-56.802,25.021c-11.034,4.859-16.062,17.754-11.191,28.813c4.871,11.06,17.78,16.052,28.813,11.191l76.504-33.7
			C399.468,227.22,404.553,214.783,400.174,203.842z"/>
	</g>
</g>
<g>
	<g>
		<path d="M365.401,110.05c-11.991-10.252-30.03-8.853-40.293,3.149c-10.255,11.995-8.848,30.034,3.149,40.293
			c11.99,10.252,30.03,8.853,40.293-3.149C378.807,138.347,377.397,120.307,365.401,110.05z"/>
	</g>
</g>
<g>
	<g>
		<path d="M239.77,429.646l-12.302-79.543h-49.472l13.457,87.015c1.868,12.077,12.276,20.713,24.128,20.713
			c1.242,0,2.501-0.095,3.766-0.29C232.69,455.477,241.833,442.988,239.77,429.646z"/>
	</g>
</g>
<g>
	<g>
		<path d="M302.072,350.103l-12.301,79.543c-2.063,13.342,7.079,25.831,20.423,27.895c1.266,0.195,2.523,0.291,3.766,0.29
			c11.85-0.001,22.261-8.636,24.128-20.713l13.456-87.015H302.072z"/>
	</g>
</g>
<g>
	<g>
		<path d="M416.398,284.991h-224.17c1.175-1.866,1.865-4.067,1.865-6.434c0-3.36-1.372-6.399-3.583-8.592
			c55.578,0,17.359,0,68.483,0c-2.867-2.982-12.902-16.439-12.902-16.439c-18.537,6.378-20.995,7.69-27.59,7.69
			c-8.253,0-16.219-3.256-22.16-9.19h-8.622l-2.923,14.77c-1.968-0.467-0.099-0.34-30.881-0.34c0-10.445,0-18.442,0-28.952h54.933
			c5.553,0,10.054-4.501,10.054-10.054v-88.338c0-5.553-4.501-10.054-10.054-10.054H59.54c-5.553,0-10.054,4.501-10.054,10.054
			v88.337c0,5.553,4.501,10.054,10.054,10.054h54.933c0,10.519,0,18.503,0,28.952H86.394c-6.662,0-12.101,5.407-12.101,12.101
			c0,2.368,0.69,4.569,1.865,6.434H12.021c-4.927,0-8.921,3.994-8.921,8.921v32.247c0,4.927,3.994,8.921,8.921,8.921h14.06
			c0,6.298,0,151.607,0,158.771c0,10.025,8.127,18.151,18.151,18.151s18.151-8.127,18.151-18.151c0-7.17,0-152.475,0-158.771
			h303.735c0,6.298,0,151.607,0,158.771c0,10.025,8.127,18.151,18.151,18.151s18.151-8.127,18.151-18.151
			c0-7.17,0-152.475,0-158.771h13.976c4.926,0,8.918-3.991,8.921-8.917c0-0.001,0-0.002,0-0.003V293.91c0-0.001,0-0.002,0-0.003
			C425.317,288.982,421.324,284.991,416.398,284.991z M134.194,199.92c-9.189,0-16.639-7.45-16.639-16.639
			c0-9.189,7.45-16.639,16.639-16.639c9.189,0,16.639,7.45,16.639,16.639C150.833,192.47,143.383,199.92,134.194,199.92z"/>
	</g>
</g>
<g>
	<g>
		<path d="M499.523,319.254h-11.539v-37.063c0-6.683-5.419-12.101-12.101-12.101s-12.101,5.418-12.101,12.101v37.063h-11.54
			c-5.178,0-9.376,4.198-9.376,9.376v119.65c0,5.178,4.198,9.376,9.376,9.376h47.282c5.178,0,9.377-4.198,9.377-9.376V328.631
			C508.9,323.453,504.702,319.254,499.523,319.254z"/>
	</g>
</g>
<g>
</g>
<g>
</g>
<g>
</g>
<g>
</g>
<g>
</g>
<g>
</g>
<g>
</g>
<g>
</g>
<g>
</g>
<g>
</g>
<g>
</g>
<g>
</g>
<g>
</g>
<g>
</g>
<g>
</g>
</svg>
